<svg xmlns="http://www.w3.org/2000/svg" width="1152" height="180" viewBox="0 0 1152 180" class="WaveDrom" xmlns:xlink="http://www.w3.org/1999/xlink"><g transform="translate(0.5,0.5)" text-anchor="middle" font-size="14" font-family="sans-serif" font-weight="normal"><g transform="translate(4,14)"><g stroke="black" stroke-width="1" stroke-linecap="round"><line x2="1143"/><line x1="1143" x2="1143" y2="32"/><line x2="1143" y1="32" y2="32"/><line y2="32"/><line x1="381" x2="381" y2="32"/><line x1="762" x2="762" y2="32"/></g><g><g><rect width="381" height="32" style="fill-opacity:0.1;fill:hsl(215,100%,50%)"/><rect x="381" width="381" height="32" style="fill-opacity:0.1;fill:hsl(170,100%,50%)"/><rect x="762" width="381" height="32" style="fill-opacity:0.1;fill:hsl(45,100%,50%)"/></g><g transform="translate(191,-3)"><text>0</text><text x="381">1</text><text x="762">2</text></g><g transform="translate(191,21)"><text><tspan>bLength</tspan></text><text x="381"><tspan>bDescriptorType</tspan></text><text x="762"><tspan>bInterfaceNumber</tspan></text></g><g transform="translate(191,45)"/></g></g><g transform="translate(4,74)"><g stroke="black" stroke-width="1" stroke-linecap="round"><line x2="1143"/><line x1="1143" x2="1143" y2="32"/><line x2="1143" y1="32" y2="32"/><line y2="32"/><line x1="381" x2="381" y2="32"/><line x1="762" x2="762" y2="32"/></g><g><g><rect width="381" height="32" style="fill-opacity:0.1"/><rect x="381" width="381" height="32" style="fill-opacity:0.1;fill:hsl(0,100%,50%)"/><rect x="762" width="381" height="32" style="fill-opacity:0.1;fill:hsl(80,100%,50%)"/></g><g transform="translate(191,-3)"><text>3</text><text x="381">4</text><text x="762">5</text></g><g transform="translate(191,21)"><text><tspan>bAlternateSetting</tspan></text><text x="381"><tspan>bNumEndpoints</tspan></text><text x="762"><tspan>bInterfaceClass</tspan></text></g><g transform="translate(191,45)"/></g></g><g transform="translate(4,134)"><g stroke="black" stroke-width="1" stroke-linecap="round"><line x2="1143"/><line x1="1143" x2="1143" y2="32"/><line x2="1143" y1="32" y2="32"/><line y2="32"/><line x1="381" x2="381" y2="32"/><line x1="762" x2="762" y2="32"/></g><g><g><rect width="381" height="32" style="fill-opacity:0.1;fill:hsl(170,100%,50%)"/><rect x="381" width="381" height="32" style="fill-opacity:0.1;fill:hsl(45,100%,50%)"/><rect x="762" width="381" height="32" style="fill-opacity:0.1;fill:hsl(126,100%,50%)"/></g><g transform="translate(191,-3)"><text>6</text><text x="381">7</text><text x="762">8</text></g><g transform="translate(191,21)"><text><tspan>bInterfaceSubClass</tspan></text><text x="381"><tspan>bInterfaceProtocol</tspan></text><text x="762"><tspan>iInterface</tspan></text></g><g transform="translate(191,45)"/></g></g></g></svg>